<svg height="42" width="120" xmlns="http://www.w3.org/2000/svg">
  <g transform="matrix(.9937728 0 0 .9936696 -437.11979 0)">
    <path
      d="m443.28955.44873 114.06348.20312c1.59375 0 3.01758-.23682 3.01758 3.18018l-.13965 37.56689h-119.82032v-37.70654c0-1.68457.16309-3.24365 2.87891-3.24365z"
      fill="#aab2ab" />
    <path
      d="m558.3501 0h-116.22949c-1.24707 0-2.26172 1.01465-2.26172 2.26123v39.49609c0 .28174.22852.51025.51074.51025h119.73047c.28223 0 .51074-.22852.51074-.51025v-39.49609c0-1.24658-1.01465-2.26123-2.26074-2.26123zm-116.22949 1.02148h116.22949c.68359 0 1.23926.55615 1.23926 1.23975v27.3877h-83.07324c-3.04492 5.50537-8.91211 9.24365-15.64453 9.24365-6.73438 0-12.59961-3.73486-15.64258-9.24365h-4.34863c0-11.49658 0-27.3877 0-27.3877-.00001-.68359.55663-1.23975 1.24023-1.23975z" />
    <g transform="matrix(.872921 0 0 .872921 50.12536 143.2144)">
      <path cx="296.35416" cy="264.3577"
        d="m486.26709-141.53052c.00562 8.68024-7.02789 15.72095-15.70807 15.72711-8.68024.005-15.7215-7.02783-15.72711-15.70807 0-.00671 0-.01288 0-.01904-.00562-8.68134 7.02783-15.72205 15.70807-15.72711 8.68134-.005 15.72266 7.02789 15.72711 15.70813z"
        fill="#fff" rx="22.939548" ry="22.939548" type="arc" />
      <path
        d="m772.94281-253.39801c3.4848 3.48541 5.22778 7.75336 5.22778 12.80219 0 5.04938-1.71277 9.27148-5.13831 12.66797-3.63586 3.57599-7.93182 5.36371-12.89001 5.36371-4.89777 0-9.11987-1.77258-12.664-5.31952-3.54639-3.54584-5.31842-7.78302-5.31842-12.71216 0-4.92853 1.77203-9.19592 5.31842-12.80219 3.45465-3.48706 7.6767-5.22949 12.664-5.22949 5.04883 0 9.31458 1.74243 12.80054 5.22949zm-23.11859 2.3443c-2.94672 2.97638-4.4201 6.46289-4.4201 10.4624 0 3.99829 1.45886 7.4552 4.37427 10.37115 2.91766 2.91595 6.38904 4.37421 10.4176 4.37421s7.53015-1.47278 10.50708-4.41895c2.82593-2.73584 4.23889-6.17706 4.23889-10.32642 0-4.11804-1.43646-7.61353-4.30823-10.48474-2.87067-2.87067-6.34991-4.30658-10.43774-4.30658s-7.54694 1.44319-10.37177 4.32893zm7.7539 8.70319c-.44971-.98169-1.12317-1.47229-2.02264-1.47229-1.58856 0-2.38287 1.06952-2.38287 3.20856 0 2.13953.79431 3.2085 2.38287 3.2085 1.04938 0 1.79895-.52075 2.24866-1.56451l2.20276 1.17297c-1.05048 1.86548-2.62567 2.79907-4.72552 2.79907-1.61987 0-2.9176-.49677-3.89203-1.48962-.97552-.99341-1.46332-2.36273-1.46332-4.10797 0-1.71558.50342-3.07703 1.50806-4.08557s2.25763-1.51196 3.75781-1.51196c2.2207 0 3.80927.87427 4.77136 2.62231zm10.36396 0c-.45087-.98169-1.11206-1.47229-1.98242-1.47229-1.62103 0-2.43213 1.06952-2.43213 3.20856 0 2.13953.8111 3.2085 2.43213 3.2085 1.05164 0 1.78772-.52075 2.20728-1.56451l2.25201 1.17297c-1.04828 1.86548-2.62122 2.79907-4.71771 2.79907-1.61768 0-2.91205-.49677-3.88647-1.48962-.97217-.99341-1.4599-2.36273-1.4599-4.10797 0-1.71558.49445-3.07703 1.4834-4.08557.98785-1.00854 2.2453-1.51196 3.7735-1.51196 2.21619 0 3.80365.87427 4.76129 2.62231z"
        transform="translate(-289.6157 99.0653)" />
    </g>
    <g fill="#fff">
      <g enable-background="new">
        <path
          d="m488.25342 32.95605c.31738 0 .6084.02832.87012.08398s.48535.14746.67285.27539c.18652.12695.33105.29688.43457.50781.10254.21191.1543.47266.1543.78418 0 .33594-.07617.61523-.22949.83887-.15234.22461-.37793.40723-.67773.55078.41211.11816.71973.3252.92285.62109s.30469.65234.30469 1.06934c0 .33594-.06543.62695-.19629.87305-.13086.24512-.30762.44629-.52832.60156-.22168.15625-.47461.27148-.75781.3457-.28418.0752-.5752.1123-.875.1123h-3.23633v-6.66406h3.14159zm-.18653 2.69532c.26074 0 .47656-.0625.64453-.18652s.25195-.3252.25195-.60449c0-.15527-.02832-.2832-.08398-.38184-.05664-.09961-.13086-.17676-.22461-.2334-.09375-.05566-.20117-.09473-.32227-.11621s-.24805-.03223-.37891-.03223h-1.37305v1.55469zm.08497 2.82812c.14355 0 .28027-.01367.41113-.04199s.24609-.0752.34668-.13965c.09961-.06543.17871-.1543.23828-.2666.05957-.11133.08887-.25488.08887-.42871 0-.3418-.09668-.58594-.29004-.73242-.19336-.14551-.44824-.21875-.7666-.21875h-1.59961v1.82812z" />
        <path
          d="m490.96436 32.95605h1.64355l1.56055 2.63184 1.55078-2.63184h1.63379l-2.47363 4.10645v2.55762h-1.46875v-2.59473z" />
      </g>
      <g enable-background="new">
        <path
          d="m512.83057 32.95605 2.78418 4.4707h.01562v-4.4707h1.375v6.66406h-1.46582l-2.77344-4.46191h-.01855v4.46191h-1.375v-6.66406z" />
        <path
          d="m522.56885 34.73145c-.08691-.14062-.19629-.26367-.32715-.36914s-.27832-.18848-.44336-.24707c-.16504-.05957-.33789-.08887-.51758-.08887-.33008 0-.61035.06348-.84082.19141-.23047.12695-.41699.29785-.55957.5127-.14355.21484-.24805.45898-.31348.73242s-.09766.55664-.09766.84863c0 .28027.03223.55273.09766.81641.06543.26465.16992.50293.31348.71387.14258.21191.3291.38086.55957.50879s.51074.19141.84082.19141c.44727 0 .79785-.13672 1.0498-.41113.25195-.27344.40625-.63477.46191-1.08301h1.41895c-.03711.41699-.13379.79395-.28906 1.12988-.15527.33691-.36133.62305-.61621.86035s-.55371.41797-.89648.54297c-.3418.125-.71875.1875-1.12891.1875-.51074 0-.96973-.08887-1.37793-.2666-.40723-.17676-.75195-.42188-1.03223-.73242-.28125-.31152-.49609-.67773-.64551-1.09766-.14941-.4209-.22461-.87305-.22461-1.35938 0-.49805.0752-.95996.22461-1.38672s.36426-.79883.64551-1.11621c.28027-.31738.625-.56641 1.03223-.74707.4082-.18066.86719-.27051 1.37793-.27051.36719 0 .71387.05273 1.04102.15918.32617.10547.61914.25977.87695.46289.25879.20215.47168.45312.63965.75195s.27344.6416.31738 1.02734h-1.41895c-.02441-.16797-.08105-.32227-.16796-.46191z" />
      </g>
      <g enable-background="new">
        <path
          d="m538.83057 32.95605 2.78418 4.4707h.01562v-4.4707h1.375v6.66406h-1.46582l-2.77344-4.46191h-.01855v4.46191h-1.375v-6.66406z" />
        <path
          d="m547.16748 32.95605c.43066 0 .83008.06836 1.20117.20508s.69141.34277.96289.61621c.27051.27344.48242.61621.63477 1.02637.15332.41113.22949.89355.22949 1.44727 0 .48535-.0625.93262-.18652 1.34375-.125.41016-.31348.76562-.56543 1.06348-.25293.29883-.56738.53418-.94434.70508s-.82031.25684-1.33203.25684h-2.87793v-6.66406h2.87793zm-.10254 5.42969c.21191 0 .41699-.03418.61621-.10254s.37695-.18164.53223-.34082c.15527-.1582.28027-.36426.37402-.61914.09277-.25488.13965-.56641.13965-.93262 0-.33594-.03223-.63867-.09766-.90918s-.17285-.50195-.32227-.69434-.34668-.34082-.59277-.44336-.5498-.15332-.91016-.15332h-1.0459v4.19531h1.30665z" />
      </g>
    </g>
    <g transform="matrix(1.146822 0 0 1.146822 219.00635 166.15304)">
      <path cx="475.97119" cy="252.08646"
        d="m269.61823-131.7348c.00424 4.82693-3.90601 8.74188-8.73337 8.74573-4.82654.00296-8.74191-3.90686-8.7453-8.73297 0-.0051 0-.00894 0-.01276-.00342-4.82736 3.90686-8.74231 8.73337-8.74615 4.82651-.00299 8.74188 3.90686 8.7453 8.73294z"
        fill="#fff" rx="29.209877" ry="29.209877" type="arc" />
      <path
        d="m260.86526-141.90982c2.85349 0 5.26419.98352 7.23383 2.95013 1.9696 1.9675 2.95483 4.37607 2.95483 7.22488 0 2.84839-.9682 5.23141-2.90375 7.14822-2.05478 2.01816-4.48337 3.02637-7.28491 3.02637-2.76666 0-5.15265-1.00055-7.15634-3.00168-2.00366-2.00024-3.00507-4.39178-3.00507-7.17291 0-2.78156 1.0014-5.19012 3.00507-7.22488 1.95258-1.96661 4.3386-2.95013 7.15634-2.95013zm-7.87246 7.44116c-.30316.85876-.45557 1.7699-.45557 2.73386 0 2.25528.82428 4.2049 2.47116 5.85049 1.64685 1.64432 3.60797 2.46689 5.88327 2.46689 2.27444 0 4.25256-.83066 5.9335-2.49286.56287-.5437 1.02698-1.13681 1.39056-1.77972l-3.83618-1.70776c-.2597 1.2905-1.41013 2.16205-2.79984 2.26425v1.56894h-1.16833v-1.56894c-1.14191-.01279-2.24463-.47986-3.0885-1.21814l1.40161-1.41312c.67444.63525 1.3497.92007 2.27106.92007.59692 0 1.25858-.23331 1.25858-1.0112 0-.27545-.10645-.46707-.2742-.61139l-.97073-.43088-1.20749-.5386c-.59778-.26654-1.10446-.49091-1.61197-.71741zm7.89886-5.60995c-2.31021 0-4.26196.81366-5.85858 2.44223-.4343.43854-.81238.89624-1.13254 1.37439l3.88898 1.73203c.35168-1.07935 1.37692-1.73416 2.62186-1.80655v-1.56897h1.16833v1.56897c.80469.03876 1.68689.25928 2.5563.93286l-1.33691 1.37439c-.49304-.35001-1.11551-.5961-1.73883-.5961-.50583 0-1.22028.155-1.22028.79068 0 .09665.03323.18179.09198.25842l1.30115.57819.88049.39258c.56287.25162 1.10104.49005 1.63324.7272l5.21399 2.32129c.172-.6825.25885-1.40887.25885-2.1778 0-2.32343-.81491-4.29089-2.44476-5.90158-1.61364-1.62857-3.57391-2.44223-5.88327-2.44223z" />
    </g>
    <g transform="matrix(.624995 0 0 .624995 312.8511 316.9328)">
      <path cx="475.97119" cy="252.08646"
        d="m387.83435-482.97366c.00781 9.41101-7.61725 17.047-17.02826 17.05481-9.4126.00543-17.04858-7.61804-17.05487-17.03137 0-.00708 0-.01642 0-.02344-.00623-9.4118 7.61725-17.04779 17.02985-17.05487 9.41101-.00781 17.047 7.61725 17.05328 17.02905z"
        fill="#fff" rx="29.209877" ry="29.209877" type="arc" />
      <g transform="translate(-23.9521 -87.92102)">
        <path
          d="m394.47845-413.72311c-5.17194 0-9.55005 1.8031-13.13293 5.41333-3.67657 3.73358-5.5141 8.15161-5.5141 13.25714 0 5.10315 1.83752 9.48993 5.5141 13.1618 3.67505 3.67188 8.05475 5.50787 13.13293 5.50787 5.14069 0 9.5954-1.85236 13.36572-5.55316 3.55005-3.51721 5.32819-7.88995 5.32819-13.11652 0-5.22974-1.8078-9.64697-5.42194-13.25714-3.61407-3.61022-8.03912-5.41332-13.27197-5.41332zm.04535 3.35858c4.23749 0 7.836 1.49457 10.79694 4.48285 2.99066 2.95551 4.48444 6.56415 4.48444 10.82904 0 4.29376-1.46252 7.85626-4.39069 10.68756-3.08594 3.05005-6.7157 4.57269-10.89069 4.57269-4.17505 0-7.7735-1.50781-10.79541-4.5274-3.02191-3.01721-4.53284-6.59613-4.53284-10.73285 0-4.14069 1.52655-7.74933 4.58124-10.82904 2.92817-2.98828 6.50946-4.48285 10.74701-4.48285z" />
        <path d="m401.55505-399.47849h-13.57037v3.2149h13.57037zm0 6.00086h-13.57037v3.21405h13.57037z" />
      </g>
    </g>
    <circle cx="491.9473" cy="15.31396" fill="#fff" r="10.80615" />
    <path
      d="m495.07474 12.18701c0-.4165-.33789-.75342-.75391-.75342h-4.77246c-.41602 0-.75391.33691-.75391.75342v4.77295h1.33105v5.65234h3.61719v-5.65234h1.33203v-4.77295z" />
    <circle cx="491.9346" cy="9.17236" r="1.63232" />
    <path clip-rule="evenodd"
      d="m491.91946 3.40771c-3.23145 0-5.96777 1.12744-8.20703 3.38379-2.29785 2.33301-3.44629 5.09521-3.44629 8.28418s1.14844 5.93213 3.44629 8.22705c2.29785 2.29443 5.03418 3.44189 8.20703 3.44189 3.21289 0 5.99805-1.15674 8.35449-3.47168 2.21973-2.19678 3.3291-4.92969 3.3291-8.19727s-1.12891-6.02832-3.3877-8.28418c-2.25878-2.25633-5.02342-3.38378-8.29589-3.38378zm.03028 2.09961c2.64844 0 4.89648.93359 6.74609 2.80078 1.87012 1.84717 2.80469 4.10352 2.80469 6.76758 0 2.68359-.91504 4.91113-2.74609 6.68066-1.92773 1.90576-4.19629 2.8584-6.80469 2.8584-2.61035 0-4.85938-.94287-6.74805-2.8291-1.88867-1.88672-2.83301-4.12305-2.83301-6.70996 0-2.58643.9541-4.84229 2.8623-6.76758 1.83106-1.86718 4.07032-2.80078 6.71876-2.80078z"
      fill-rule="evenodd" />
  </g>
</svg>